<mxfile host="Electron" agent="Mozilla/5.0 (Macintosh; Intel Mac OS X 10_15_7) AppleWebKit/537.36 (KHTML, like Gecko) draw.io/24.7.5 Chrome/126.0.6478.183 Electron/31.3.0 Safari/537.36" version="24.7.5">
  <diagram name="Page-1" id="M4YgoTY15QKWMWH-Roia">
    <mxGraphModel dx="1974" dy="783" grid="1" gridSize="10" guides="1" tooltips="1" connect="1" arrows="1" fold="1" page="1" pageScale="1" pageWidth="827" pageHeight="1169" math="0" shadow="0">
      <root>
        <mxCell id="0" />
        <mxCell id="1" parent="0" />
        <UserObject placeholders="1" label="10-100 Gi RWO/RWX Storage" Icon-Name="block-storage--alt" id="aR7TopPvcfakPVd7oC1--1">
          <mxCell style="shape=mxgraph.ibm2mondrian.base;shapeType=ln;shapeLayout=collapsed;colorFamily=cyan;colorBackground=noColor:noColor;html=1;whiteSpace=wrap;metaEdit=1;strokeWidth=1;collapsible=0;recursiveResize=0;expand=0;fontFamily=IBM Plex Sans;fontColor=#000000;fontSize=14;image=;verticalAlign=top;align=center;spacing=0;spacingLeft=0;spacingRight=0;spacingTop=0;spacingBottom=0;verticalLabelPosition=bottom;labelPosition=center;positionText=bottom;container=1;labelWidth=71;" vertex="1" parent="1">
            <mxGeometry x="480" y="640" width="48" height="48" as="geometry" />
          </mxCell>
        </UserObject>
        <mxCell id="aR7TopPvcfakPVd7oC1--2" value="" style="rounded=1;whiteSpace=wrap;html=1;" vertex="1" parent="1">
          <mxGeometry x="48" y="624" width="216" height="112" as="geometry" />
        </mxCell>
        <UserObject placeholders="1" label="Desktop Computer" Icon-Name="screen" id="aR7TopPvcfakPVd7oC1--3">
          <mxCell style="shape=mxgraph.ibm2mondrian.base;shapeType=pn;shapeLayout=collapsed;colorFamily=magenta;colorBackground=noColor:noColor;html=1;whiteSpace=wrap;metaEdit=1;strokeWidth=1;collapsible=0;recursiveResize=0;expand=0;fontFamily=IBM Plex Sans;fontColor=#000000;fontSize=14;image=;verticalAlign=top;align=center;spacing=0;spacingLeft=0;spacingRight=0;spacingTop=0;spacingBottom=0;verticalLabelPosition=bottom;labelPosition=center;positionText=bottom;container=1" vertex="1" parent="1">
            <mxGeometry x="57" y="633" width="48" height="48" as="geometry" />
          </mxCell>
        </UserObject>
        <mxCell id="aR7TopPvcfakPVd7oC1--4" value="Rule Designer Eclipse Plug-in" style="rounded=0;whiteSpace=wrap;html=1;" vertex="1" parent="1">
          <mxGeometry x="124" y="651" width="120" height="60" as="geometry" />
        </mxCell>
        <UserObject placeholders="1" label="10-100 Gi RWO/RWX Storage" Icon-Name="block-storage--alt" _id="userobject_36gLu0jZ1a0" id="aR7TopPvcfakPVd7oC1--5">
          <mxCell style="shape=mxgraph.ibm2mondrian.base;shapeType=ln;shapeLayout=collapsed;colorFamily=cyan;colorBackground=noColor:noColor;html=1;whiteSpace=wrap;metaEdit=1;strokeWidth=1;collapsible=0;recursiveResize=0;expand=0;fontFamily=IBM Plex Sans;fontColor=#000000;fontSize=14;image=;verticalAlign=top;align=center;spacing=0;spacingLeft=0;spacingRight=0;spacingTop=0;spacingBottom=0;verticalLabelPosition=bottom;labelPosition=center;positionText=bottom;container=1;labelWidth=71;" vertex="1" parent="1">
            <mxGeometry x="1110" y="336" width="48" height="48" as="geometry" />
          </mxCell>
        </UserObject>
        <mxCell id="aR7TopPvcfakPVd7oC1--6" style="edgeStyle=orthogonalEdgeStyle;rounded=1;html=1;jumpStyle=arc;jumpSize=8;entryX=0.5;entryY=1;entryPerimeter=0;jettySize=auto;orthogonalLoop=1;entryDx=0;entryDy=0;endArrow=none;endFill=0;" edge="1" parent="1" source="aR7TopPvcfakPVd7oC1--2" target="aR7TopPvcfakPVd7oC1--16">
          <mxGeometry relative="1" as="geometry" />
        </mxCell>
        <UserObject placeholders="1" label="DC/DS Database" Icon-Name="data--base" id="aR7TopPvcfakPVd7oC1--7">
          <mxCell style="shape=mxgraph.ibm2mondrian.base;shapeType=ln;shapeLayout=collapsed;colorFamily=cyan;colorBackground=noColor:noColor;html=1;whiteSpace=wrap;metaEdit=1;strokeWidth=1;collapsible=0;recursiveResize=0;expand=0;fontFamily=IBM Plex Sans;fontColor=#000000;fontSize=14;image=;verticalAlign=top;align=center;spacing=0;spacingLeft=0;spacingRight=0;spacingTop=0;spacingBottom=0;verticalLabelPosition=bottom;labelPosition=center;positionText=bottom;container=1" vertex="1" parent="1">
            <mxGeometry x="376" y="640" width="48" height="48" as="geometry" />
          </mxCell>
        </UserObject>
        <UserObject placeholders="1" label="DS schema Database" Icon-Name="data--base" _id="userobject_36h0aT39iPe" id="aR7TopPvcfakPVd7oC1--8">
          <mxCell style="shape=mxgraph.ibm2mondrian.base;shapeType=ln;shapeLayout=collapsed;colorFamily=cyan;colorBackground=noColor:noColor;html=1;whiteSpace=wrap;metaEdit=1;strokeWidth=1;collapsible=0;recursiveResize=0;expand=0;fontFamily=IBM Plex Sans;fontColor=#000000;fontSize=14;image=;verticalAlign=top;align=center;spacing=0;spacingLeft=0;spacingRight=0;spacingTop=0;spacingBottom=0;verticalLabelPosition=bottom;labelPosition=center;positionText=bottom;container=1" vertex="1" parent="1">
            <mxGeometry x="1043" y="336" width="48" height="48" as="geometry" />
          </mxCell>
        </UserObject>
        <mxCell id="aR7TopPvcfakPVd7oC1--9" style="edgeStyle=orthogonalEdgeStyle;rounded=1;orthogonalLoop=1;jettySize=auto;html=1;jumpStyle=arc;jumpSize=8;endArrow=none;endFill=0;" edge="1" parent="1" source="aR7TopPvcfakPVd7oC1--7" target="aR7TopPvcfakPVd7oC1--16">
          <mxGeometry relative="1" as="geometry">
            <Array as="points">
              <mxPoint x="400" y="512" />
              <mxPoint x="160" y="512" />
            </Array>
          </mxGeometry>
        </mxCell>
        <mxCell id="aR7TopPvcfakPVd7oC1--10" style="edgeStyle=orthogonalEdgeStyle;rounded=1;orthogonalLoop=1;jettySize=auto;html=1;jumpStyle=arc;jumpSize=8;" edge="1" parent="1" source="aR7TopPvcfakPVd7oC1--7" target="aR7TopPvcfakPVd7oC1--17">
          <mxGeometry relative="1" as="geometry">
            <Array as="points">
              <mxPoint x="400" y="336" />
            </Array>
          </mxGeometry>
        </mxCell>
        <UserObject placeholders="1" label="DS Database" Icon-Name="data--base" _id="userobject_36tToe7MxoT" id="aR7TopPvcfakPVd7oC1--11">
          <mxCell style="shape=mxgraph.ibm2mondrian.base;shapeType=ln;shapeLayout=collapsed;colorFamily=cyan;colorBackground=noColor:noColor;html=1;whiteSpace=wrap;metaEdit=1;strokeWidth=1;collapsible=0;recursiveResize=0;expand=0;fontFamily=IBM Plex Sans;fontColor=#000000;fontSize=14;image=;verticalAlign=top;align=center;spacing=0;spacingLeft=0;spacingRight=0;spacingTop=0;spacingBottom=0;verticalLabelPosition=bottom;labelPosition=center;positionText=bottom;container=1" vertex="1" parent="1">
            <mxGeometry x="608" y="640" width="48" height="48" as="geometry" />
          </mxCell>
        </UserObject>
        <mxCell id="aR7TopPvcfakPVd7oC1--12" style="edgeStyle=orthogonalEdgeStyle;rounded=1;orthogonalLoop=1;jettySize=auto;html=1;jumpStyle=arc;jumpSize=8;endArrow=none;endFill=0;" edge="1" parent="1" source="aR7TopPvcfakPVd7oC1--11" target="aR7TopPvcfakPVd7oC1--21">
          <mxGeometry relative="1" as="geometry">
            <Array as="points">
              <mxPoint x="568" y="664" />
              <mxPoint x="568" y="192" />
              <mxPoint x="456" y="192" />
            </Array>
          </mxGeometry>
        </mxCell>
        <mxCell id="6rPzxg4Oxo8IYq2GnVGq-2" value="" style="group" vertex="1" connectable="0" parent="1">
          <mxGeometry x="18" y="21.5" width="792" height="440" as="geometry" />
        </mxCell>
        <mxCell id="6rPzxg4Oxo8IYq2GnVGq-3" value="" style="group" vertex="1" connectable="0" parent="6rPzxg4Oxo8IYq2GnVGq-2">
          <mxGeometry width="792" height="440" as="geometry" />
        </mxCell>
        <mxCell id="6rPzxg4Oxo8IYq2GnVGq-4" value="" style="group" vertex="1" connectable="0" parent="6rPzxg4Oxo8IYq2GnVGq-3">
          <mxGeometry width="792" height="440" as="geometry" />
        </mxCell>
        <mxCell id="ES-SXSXUFpJiXhXguehX-1" value="OpenShift Cluster" style="swimlane;fillColor=#f8cecc;strokeColor=#b85450;movable=1;resizable=1;rotatable=1;deletable=1;editable=1;locked=0;connectable=1;" vertex="1" parent="6rPzxg4Oxo8IYq2GnVGq-4">
          <mxGeometry width="792" height="440" as="geometry">
            <mxRectangle width="140" height="30" as="alternateBounds" />
          </mxGeometry>
        </mxCell>
        <mxCell id="6rPzxg4Oxo8IYq2GnVGq-1" value="" style="group" vertex="1" connectable="0" parent="6rPzxg4Oxo8IYq2GnVGq-4">
          <mxGeometry x="14" y="45.5" width="768" height="349" as="geometry" />
        </mxCell>
        <UserObject placeholders="1" label="ODM Dev Namespace" Icon-Name="border--none" id="aR7TopPvcfakPVd7oC1--15">
          <mxCell style="shape=mxgraph.ibm2mondrian.base;shapeType=lg;shapeLayout=expanded;colorFamily=green;colorBackground=noColor:noColor;html=1;whiteSpace=wrap;metaEdit=1;strokeWidth=1;collapsible=0;recursiveResize=0;expand=0;fontFamily=IBM Plex Sans;fontColor=#000000;fontSize=14;image=;verticalAlign=top;align=left;spacing=0;spacingLeft=12;spacingRight=16;spacingTop=0;spacingBottom=0;container=1" vertex="1" parent="6rPzxg4Oxo8IYq2GnVGq-1">
            <mxGeometry width="320" height="349" as="geometry" />
          </mxCell>
        </UserObject>
        <UserObject placeholders="1" label="Decision Center" Icon-Name="cube" id="aR7TopPvcfakPVd7oC1--16">
          <mxCell style="shape=mxgraph.ibm2mondrian.base;shapeType=lg;shapeLayout=expanded;colorFamily=green;colorBackground=noColor:noColor;html=1;whiteSpace=wrap;metaEdit=1;strokeWidth=1;collapsible=0;recursiveResize=0;expand=0;fontFamily=IBM Plex Sans;fontColor=#000000;fontSize=14;image=;verticalAlign=middle;align=left;spacing=0;spacingLeft=12;spacingRight=16;spacingTop=0;spacingBottom=0;container=1" vertex="1" parent="aR7TopPvcfakPVd7oC1--15">
            <mxGeometry x="9" y="268" width="144" height="68" as="geometry" />
          </mxCell>
        </UserObject>
        <UserObject placeholders="1" label="Decision Server Runtime" Icon-Name="cube" _id="userobject_32UdcglKTdE" id="aR7TopPvcfakPVd7oC1--17">
          <mxCell style="shape=mxgraph.ibm2mondrian.base;shapeType=lg;shapeLayout=expanded;colorFamily=green;colorBackground=noColor:noColor;html=1;whiteSpace=wrap;metaEdit=1;strokeWidth=1;collapsible=0;recursiveResize=0;expand=0;fontFamily=IBM Plex Sans;fontColor=#000000;fontSize=14;image=;verticalAlign=middle;align=left;spacing=0;spacingLeft=12;spacingRight=16;spacingTop=0;spacingBottom=0;container=1" vertex="1" parent="aR7TopPvcfakPVd7oC1--15">
            <mxGeometry x="9" y="192" width="144" height="64" as="geometry" />
          </mxCell>
        </UserObject>
        <UserObject placeholders="1" label="Decision Runner" Icon-Name="cube" _id="userobject_3665TlVw5yO" id="aR7TopPvcfakPVd7oC1--18">
          <mxCell style="shape=mxgraph.ibm2mondrian.base;shapeType=lg;shapeLayout=expanded;colorFamily=green;colorBackground=noColor:noColor;html=1;whiteSpace=wrap;metaEdit=1;strokeWidth=1;collapsible=0;recursiveResize=0;expand=0;fontFamily=IBM Plex Sans;fontColor=#000000;fontSize=14;image=;verticalAlign=middle;align=left;spacing=0;spacingLeft=12;spacingRight=16;spacingTop=0;spacingBottom=0;container=1" vertex="1" parent="aR7TopPvcfakPVd7oC1--15">
            <mxGeometry x="11" y="120" width="144" height="64" as="geometry" />
          </mxCell>
        </UserObject>
        <UserObject placeholders="1" label="Decision Server Console" Icon-Name="cube" _id="userobject_36gLhacHONI" id="aR7TopPvcfakPVd7oC1--19">
          <mxCell style="shape=mxgraph.ibm2mondrian.base;shapeType=lg;shapeLayout=expanded;colorFamily=green;colorBackground=noColor:noColor;html=1;whiteSpace=wrap;metaEdit=1;strokeWidth=1;collapsible=0;recursiveResize=0;expand=0;fontFamily=IBM Plex Sans;fontColor=#000000;fontSize=14;image=;verticalAlign=middle;align=left;spacing=0;spacingLeft=12;spacingRight=16;spacingTop=0;spacingBottom=0;container=1" vertex="1" parent="aR7TopPvcfakPVd7oC1--15">
            <mxGeometry x="11" y="48" width="144" height="64" as="geometry" />
          </mxCell>
        </UserObject>
        <UserObject placeholders="1" label="ODM Stage Namespace" Icon-Name="border--none" _id="userobject_36LwldoxJTy" id="aR7TopPvcfakPVd7oC1--20">
          <mxCell style="shape=mxgraph.ibm2mondrian.base;shapeType=lg;shapeLayout=expanded;colorFamily=green;colorBackground=noColor:noColor;html=1;whiteSpace=wrap;metaEdit=1;strokeWidth=1;collapsible=0;recursiveResize=0;expand=0;fontFamily=IBM Plex Sans;fontColor=#000000;fontSize=14;image=;verticalAlign=top;align=left;spacing=0;spacingLeft=12;spacingRight=16;spacingTop=0;spacingBottom=0;container=1" vertex="1" parent="6rPzxg4Oxo8IYq2GnVGq-1">
            <mxGeometry x="336" width="192" height="205" as="geometry" />
          </mxCell>
        </UserObject>
        <UserObject placeholders="1" label="Decision Server Runtime" Icon-Name="cube" _id="userobject_36LwldpqGJx" id="aR7TopPvcfakPVd7oC1--21">
          <mxCell style="shape=mxgraph.ibm2mondrian.base;shapeType=lg;shapeLayout=expanded;colorFamily=green;colorBackground=noColor:noColor;html=1;whiteSpace=wrap;metaEdit=1;strokeWidth=1;collapsible=0;recursiveResize=0;expand=0;fontFamily=IBM Plex Sans;fontColor=#000000;fontSize=14;image=;verticalAlign=middle;align=left;spacing=0;spacingLeft=12;spacingRight=16;spacingTop=0;spacingBottom=0;container=1" vertex="1" parent="aR7TopPvcfakPVd7oC1--20">
            <mxGeometry x="16" y="48" width="144" height="64" as="geometry" />
          </mxCell>
        </UserObject>
        <UserObject placeholders="1" label="Decision Server Console" Icon-Name="cube" _id="userobject_36Lwldpt7G8" id="aR7TopPvcfakPVd7oC1--22">
          <mxCell style="shape=mxgraph.ibm2mondrian.base;shapeType=lg;shapeLayout=expanded;colorFamily=green;colorBackground=noColor:noColor;html=1;whiteSpace=wrap;metaEdit=1;strokeWidth=1;collapsible=0;recursiveResize=0;expand=0;fontFamily=IBM Plex Sans;fontColor=#000000;fontSize=14;image=;verticalAlign=middle;align=left;spacing=0;spacingLeft=12;spacingRight=16;spacingTop=0;spacingBottom=0;container=1" vertex="1" parent="aR7TopPvcfakPVd7oC1--20">
            <mxGeometry x="16" y="133" width="144" height="64" as="geometry" />
          </mxCell>
        </UserObject>
        <UserObject placeholders="1" label="Application Namespace" Icon-Name="border--none" id="aR7TopPvcfakPVd7oC1--23">
          <mxCell style="shape=mxgraph.ibm2mondrian.base;shapeType=lg;shapeLayout=expanded;colorFamily=green;colorBackground=noColor:noColor;html=1;whiteSpace=wrap;metaEdit=1;strokeWidth=1;collapsible=0;recursiveResize=0;expand=0;fontFamily=IBM Plex Sans;fontColor=#000000;fontSize=14;image=;verticalAlign=top;align=left;spacing=0;spacingLeft=12;spacingRight=16;spacingTop=0;spacingBottom=0;container=1" vertex="1" parent="6rPzxg4Oxo8IYq2GnVGq-1">
            <mxGeometry x="544" width="224" height="189" as="geometry" />
          </mxCell>
        </UserObject>
        <UserObject placeholders="1" label="App with Embedded Rules" Icon-Name="cube" _id="userobject_364tx5ubr6u" id="aR7TopPvcfakPVd7oC1--24">
          <mxCell style="shape=mxgraph.ibm2mondrian.base;shapeType=lg;shapeLayout=expanded;colorFamily=green;colorBackground=noColor:noColor;html=1;whiteSpace=wrap;metaEdit=1;strokeWidth=1;collapsible=0;recursiveResize=0;expand=0;fontFamily=IBM Plex Sans;fontColor=#000000;fontSize=14;image=;verticalAlign=middle;align=left;spacing=0;spacingLeft=12;spacingRight=16;spacingTop=0;spacingBottom=0;container=1" vertex="1" parent="aR7TopPvcfakPVd7oC1--23">
            <mxGeometry x="16" y="112" width="144" height="64" as="geometry" />
          </mxCell>
        </UserObject>
        <UserObject placeholders="1" label="App Calling Rules API" Icon-Name="cube" _id="userobject_365ESUdfBAx" id="aR7TopPvcfakPVd7oC1--25">
          <mxCell style="shape=mxgraph.ibm2mondrian.base;shapeType=lg;shapeLayout=expanded;colorFamily=green;colorBackground=noColor:noColor;html=1;whiteSpace=wrap;metaEdit=1;strokeWidth=1;collapsible=0;recursiveResize=0;expand=0;fontFamily=IBM Plex Sans;fontColor=#000000;fontSize=14;image=;verticalAlign=middle;align=left;spacing=0;spacingLeft=12;spacingRight=16;spacingTop=0;spacingBottom=0;container=1" vertex="1" parent="aR7TopPvcfakPVd7oC1--23">
            <mxGeometry x="16" y="41" width="144" height="64" as="geometry" />
          </mxCell>
        </UserObject>
        <mxCell id="6rPzxg4Oxo8IYq2GnVGq-5" value="" style="group" vertex="1" connectable="0" parent="1">
          <mxGeometry x="820" y="20" width="480" height="270" as="geometry" />
        </mxCell>
        <UserObject placeholders="1" label="ODM Namespace" Icon-Name="border--none" _id="userobject_364sGXJ9f9r" id="aR7TopPvcfakPVd7oC1--27">
          <mxCell style="shape=mxgraph.ibm2mondrian.base;shapeType=lg;shapeLayout=expanded;colorFamily=green;colorBackground=noColor:noColor;html=1;whiteSpace=wrap;metaEdit=1;strokeWidth=1;collapsible=0;recursiveResize=0;expand=0;fontFamily=IBM Plex Sans;fontColor=#000000;fontSize=14;image=;verticalAlign=top;align=left;spacing=0;spacingLeft=12;spacingRight=16;spacingTop=0;spacingBottom=0;container=1" vertex="1" parent="6rPzxg4Oxo8IYq2GnVGq-5">
            <mxGeometry x="28" y="49.5" width="184" height="201" as="geometry" />
          </mxCell>
        </UserObject>
        <UserObject placeholders="1" label="Decision Server Runtime" Icon-Name="cube" _id="userobject_32UdcglKTdE" id="aR7TopPvcfakPVd7oC1--28">
          <mxCell style="shape=mxgraph.ibm2mondrian.base;shapeType=lg;shapeLayout=expanded;colorFamily=green;colorBackground=noColor:noColor;html=1;whiteSpace=wrap;metaEdit=1;strokeWidth=1;collapsible=0;recursiveResize=0;expand=0;fontFamily=IBM Plex Sans;fontColor=#000000;fontSize=14;image=;verticalAlign=middle;align=left;spacing=0;spacingLeft=12;spacingRight=16;spacingTop=0;spacingBottom=0;container=1" vertex="1" parent="aR7TopPvcfakPVd7oC1--27">
            <mxGeometry x="16" y="48" width="144" height="64" as="geometry" />
          </mxCell>
        </UserObject>
        <UserObject placeholders="1" label="Decision Server Console" Icon-Name="cube" _id="userobject_36gZwL3k1Lv" id="aR7TopPvcfakPVd7oC1--29">
          <mxCell style="shape=mxgraph.ibm2mondrian.base;shapeType=lg;shapeLayout=expanded;colorFamily=green;colorBackground=noColor:noColor;html=1;whiteSpace=wrap;metaEdit=1;strokeWidth=1;collapsible=0;recursiveResize=0;expand=0;fontFamily=IBM Plex Sans;fontColor=#000000;fontSize=14;image=;verticalAlign=middle;align=left;spacing=0;spacingLeft=12;spacingRight=16;spacingTop=0;spacingBottom=0;container=1" vertex="1" parent="aR7TopPvcfakPVd7oC1--27">
            <mxGeometry x="16" y="124" width="144" height="64" as="geometry" />
          </mxCell>
        </UserObject>
        <UserObject placeholders="1" label="Application Namespace" Icon-Name="border--none" id="aR7TopPvcfakPVd7oC1--30">
          <mxCell style="shape=mxgraph.ibm2mondrian.base;shapeType=lg;shapeLayout=expanded;colorFamily=green;colorBackground=noColor:noColor;html=1;whiteSpace=wrap;metaEdit=1;strokeWidth=1;collapsible=0;recursiveResize=0;expand=0;fontFamily=IBM Plex Sans;fontColor=#000000;fontSize=14;image=;verticalAlign=top;align=left;spacing=0;spacingLeft=12;spacingRight=16;spacingTop=0;spacingBottom=0;container=1" vertex="1" parent="6rPzxg4Oxo8IYq2GnVGq-5">
            <mxGeometry x="228" y="49.5" width="223" height="193" as="geometry" />
          </mxCell>
        </UserObject>
        <UserObject placeholders="1" label="App with Embedded Rules" Icon-Name="cube" _id="userobject_364tx5ubr6u" id="aR7TopPvcfakPVd7oC1--31">
          <mxCell style="shape=mxgraph.ibm2mondrian.base;shapeType=lg;shapeLayout=expanded;colorFamily=green;colorBackground=noColor:noColor;html=1;whiteSpace=wrap;metaEdit=1;strokeWidth=1;collapsible=0;recursiveResize=0;expand=0;fontFamily=IBM Plex Sans;fontColor=#000000;fontSize=14;image=;verticalAlign=middle;align=left;spacing=0;spacingLeft=12;spacingRight=16;spacingTop=0;spacingBottom=0;container=1" vertex="1" parent="aR7TopPvcfakPVd7oC1--30">
            <mxGeometry x="16" y="112" width="144" height="64" as="geometry" />
          </mxCell>
        </UserObject>
        <UserObject placeholders="1" label="App Calling Rules API" Icon-Name="cube" _id="userobject_365ESUdfBAx" id="aR7TopPvcfakPVd7oC1--32">
          <mxCell style="shape=mxgraph.ibm2mondrian.base;shapeType=lg;shapeLayout=expanded;colorFamily=green;colorBackground=noColor:noColor;html=1;whiteSpace=wrap;metaEdit=1;strokeWidth=1;collapsible=0;recursiveResize=0;expand=0;fontFamily=IBM Plex Sans;fontColor=#000000;fontSize=14;image=;verticalAlign=middle;align=left;spacing=0;spacingLeft=12;spacingRight=16;spacingTop=0;spacingBottom=0;container=1" vertex="1" parent="aR7TopPvcfakPVd7oC1--30">
            <mxGeometry x="16" y="41" width="144" height="64" as="geometry" />
          </mxCell>
        </UserObject>
        <mxCell id="ES-SXSXUFpJiXhXguehX-2" value="OpenShift Cluster" style="swimlane;fillColor=#f8cecc;strokeColor=#b85450;movable=1;resizable=1;rotatable=1;deletable=1;editable=1;locked=0;connectable=1;" vertex="1" parent="6rPzxg4Oxo8IYq2GnVGq-5">
          <mxGeometry x="7" width="480" height="270" as="geometry">
            <mxRectangle x="820" y="20" width="140" height="30" as="alternateBounds" />
          </mxGeometry>
        </mxCell>
        <mxCell id="6rPzxg4Oxo8IYq2GnVGq-9" value="" style="endArrow=none;html=1;rounded=0;exitX=0.5;exitY=0;exitDx=0;exitDy=0;entryX=0.5;entryY=1;entryDx=0;entryDy=0;" edge="1" parent="1" source="aR7TopPvcfakPVd7oC1--8" target="ES-SXSXUFpJiXhXguehX-2">
          <mxGeometry width="50" height="50" relative="1" as="geometry">
            <mxPoint x="890" y="320" as="sourcePoint" />
            <mxPoint x="940" y="270" as="targetPoint" />
          </mxGeometry>
        </mxCell>
      </root>
    </mxGraphModel>
  </diagram>
</mxfile>
